<?xml version="1.0" encoding="UTF-8" standalone="no"?>
<svg xmlns:xlink="http://www.w3.org/1999/xlink" height="122.9px" width="235.65px" xmlns="http://www.w3.org/2000/svg">
  <g transform="matrix(1.0, 0.0, 0.0, 1.0, 118.05, 61.2)">
    <path d="M53.35 -33.65 Q49.7 -28.75 44.2 -30.1 33.2 -32.6 32.55 -31.65 L29.75 -28.45 Q27.05 -25.55 22.65 -24.0 18.25 -22.45 13.2 -26.1 8.15 -30.65 10.85 -35.55 13.6 -40.45 20.25 -42.3 26.9 -44.15 33.7 -39.6 L42.2 -42.1 44.65 -45.0 Q47.0 -47.55 49.95 -48.65 52.85 -49.75 54.75 -45.55 57.0 -38.5 53.35 -33.65" fill="#000000" fill-rule="evenodd" stroke="none"/>
    <path d="M7.7 -50.6 L19.2 -49.85 17.05 -31.85 1.9 -29.55 7.7 -50.6" fill="#000000" fill-rule="evenodd" stroke="none"/>
    <path d="M-2.15 -41.6 Q-2.35 -40.9 -4.85 -35.35 -7.35 -29.75 -10.0 -27.7 -12.2 -26.9 -11.7 -30.15 L-11.0 -34.0 -12.9 -36.0 -9.8 -42.35 -2.15 -41.6" fill="#000000" fill-rule="evenodd" stroke="none"/>
    <path d="M74.95 -55.3 L81.25 -55.55 Q85.6 -53.6 85.95 -48.5 89.1 -50.3 92.3 -48.7 95.9 -46.5 95.6 -42.05 L95.45 -41.4 95.05 -40.2 Q94.25 -38.75 93.1 -37.65 L93.1 -37.6 92.65 -37.15 92.0 -36.55 91.5 -36.05 88.5 -33.8 Q86.2 -32.2 83.55 -31.1 77.6 -28.2 71.95 -30.75 70.3 -31.9 69.3 -33.6 L69.2 -33.6 67.4 -30.7 67.2 -30.45 Q65.9 -28.1 63.65 -27.15 L63.0 -26.9 Q59.05 -26.05 56.35 -28.85 54.95 -30.5 54.8 -32.95 L53.9 -32.8 52.65 -30.3 Q51.1 -27.7 48.75 -25.85 L47.7 -25.05 Q43.75 -22.7 39.1 -23.3 35.15 -23.95 32.5 -27.0 L31.3 -29.0 28.95 -28.4 Q27.1 -24.2 23.55 -21.5 20.25 -18.95 16.05 -18.95 12.2 -19.05 9.25 -21.4 8.85 -21.35 8.6 -21.1 L7.3 -20.0 6.05 -19.15 Q3.5 -17.4 0.5 -16.45 -3.45 -15.05 -7.05 -16.35 -7.6 -16.5 -8.05 -16.8 L-9.05 -17.25 -11.45 -15.4 Q-14.9 -13.15 -19.2 -13.15 L-20.15 -13.15 -20.75 -13.25 Q-25.45 -14.05 -27.85 -18.25 L-28.5 -17.55 Q-33.15 -11.9 -40.0 -9.3 -43.4 -8.15 -46.35 -9.3 -47.45 -9.45 -48.35 -8.4 -49.65 -7.75 -51.0 -7.25 -56.05 -6.0 -60.3 -8.85 L-60.95 -8.3 Q-67.35 -1.8 -75.45 2.4 -82.6 6.05 -89.7 3.05 -95.65 0.0 -98.25 -6.55 -99.85 -10.75 -99.7 -15.2 L-99.7 -15.8 Q-99.4 -20.3 -97.95 -24.5 L-97.9 -24.5 -96.55 -27.85 -94.2 -32.35 -92.2 -35.4 Q-87.95 -41.5 -81.6 -45.4 L-80.75 -45.8 Q-73.05 -50.0 -65.3 -47.05 -59.9 -44.6 -59.15 -38.6 L-59.3 -37.4 Q-60.55 -33.25 -64.9 -32.5 -66.8 -32.3 -68.35 -33.2 L-70.9 -34.9 -73.8 -34.95 Q-77.05 -33.25 -79.5 -30.45 -83.55 -26.15 -85.4 -20.95 L-86.15 -17.9 -86.45 -16.05 Q-87.3 -11.55 -84.2 -8.7 -81.8 -8.5 -79.7 -9.85 L-79.35 -10.1 Q-75.0 -12.65 -71.45 -16.15 L-68.95 -18.55 Q-66.2 -21.6 -63.7 -25.05 -61.45 -31.9 -54.2 -33.7 -50.35 -34.4 -46.75 -33.15 L-46.2 -33.5 Q-44.05 -35.2 -41.25 -34.75 -37.35 -33.75 -36.5 -29.9 L-36.4 -28.8 -36.25 -28.85 -34.65 -31.45 Q-35.15 -33.45 -34.75 -35.35 -34.1 -38.65 -30.8 -40.0 -28.6 -40.8 -26.7 -39.95 L-23.05 -38.0 Q-22.45 -37.6 -21.8 -37.55 L-21.35 -37.4 Q-18.3 -37.2 -16.1 -35.15 -14.1 -32.65 -14.85 -29.3 L-14.65 -29.35 Q-11.95 -33.2 -10.45 -37.6 L-13.9 -37.35 Q-17.8 -38.0 -19.1 -41.8 -20.15 -45.85 -17.2 -48.45 -14.1 -50.15 -10.25 -50.4 L-4.25 -51.45 -2.75 -54.65 -2.45 -55.25 Q-0.45 -58.85 3.9 -58.65 6.15 -58.4 7.75 -56.95 L8.35 -56.3 Q9.15 -55.25 9.55 -53.95 L9.75 -53.9 19.9 -55.35 Q23.7 -54.85 25.1 -51.3 26.25 -47.2 23.35 -44.6 L23.4 -44.45 Q25.6 -43.25 27.2 -41.35 29.6 -41.75 31.75 -42.6 33.8 -46.0 37.2 -48.35 39.85 -50.0 43.25 -50.3 L45.8 -49.95 48.1 -49.2 Q50.5 -47.95 52.2 -45.9 54.6 -46.5 56.8 -47.7 59.6 -49.4 62.1 -51.45 64.35 -53.85 67.6 -54.45 69.7 -54.55 71.45 -53.2 73.15 -54.45 74.95 -55.3 M38.45 -36.6 Q37.8 -33.95 39.8 -32.15 40.55 -31.6 41.5 -31.75 45.0 -32.5 46.0 -36.15 46.75 -39.0 44.65 -41.05 43.4 -41.8 42.15 -41.4 38.95 -40.05 38.45 -36.6 M19.45 -36.95 Q17.95 -37.6 16.55 -36.65 13.95 -34.8 13.55 -31.65 13.25 -29.0 15.45 -27.65 16.95 -27.15 18.3 -28.0 21.25 -29.95 21.35 -33.6 21.35 -35.9 19.45 -36.95 M-0.4 -30.25 L0.3 -30.3 3.15 -32.5 6.0 -34.95 Q6.25 -36.55 7.45 -38.7 8.6 -40.8 9.95 -41.9 L4.95 -40.85 2.35 -35.7 -0.4 -30.25 M-55.3 -22.75 Q-56.9 -19.9 -55.45 -17.05 -54.5 -15.65 -52.75 -15.8 -49.25 -16.85 -48.55 -20.5 L-48.5 -20.5 -48.4 -21.5 Q-48.3 -22.3 -48.55 -23.2 -49.1 -24.95 -50.9 -25.35 -52.7 -25.5 -54.0 -24.35 L-55.3 -22.75" fill="#000000" fill-rule="evenodd" stroke="none"/>
    <path d="M65.55 -53.45 Q68.85 -54.8 71.45 -52.55 L72.5 -53.35 74.3 -54.35 Q76.75 -55.8 79.6 -55.5 83.05 -54.7 84.6 -51.55 85.4 -49.55 85.05 -47.4 L86.1 -48.1 Q89.25 -49.85 92.35 -48.05 95.35 -45.9 94.9 -42.05 94.5 -40.4 93.45 -39.25 L93.45 -39.15 92.95 -38.55 91.9 -37.55 Q87.25 -33.05 81.05 -31.0 74.9 -28.85 70.55 -33.05 69.8 -33.95 69.3 -35.05 67.35 -31.6 64.55 -28.45 61.9 -26.7 59.05 -27.85 56.05 -29.05 55.4 -32.5 L55.3 -33.9 55.2 -34.0 Q53.6 -33.9 53.05 -32.85 50.55 -26.7 44.4 -24.45 37.6 -22.7 33.2 -27.3 32.3 -28.4 31.75 -29.8 L30.7 -29.65 28.5 -29.25 Q27.65 -27.3 26.45 -25.5 L26.35 -25.45 26.05 -25.05 Q21.5 -19.05 14.0 -19.9 11.35 -20.65 9.0 -22.5 7.5 -21.0 5.55 -19.75 1.8 -17.2 -2.8 -16.55 -5.3 -16.35 -7.5 -17.4 L-9.0 -18.2 Q-10.35 -17.0 -11.85 -16.1 -17.45 -12.5 -23.5 -14.85 -26.4 -16.65 -27.85 -19.75 -32.75 -12.5 -41.25 -9.85 -43.4 -9.25 -45.55 -9.8 -46.35 -10.0 -46.95 -10.5 -48.55 -9.05 -50.6 -8.25 -53.5 -7.3 -56.25 -7.9 L-57.55 -8.3 Q-59.1 -8.9 -60.35 -9.9 L-61.1 -9.25 Q-64.45 -5.9 -68.25 -3.05 -69.05 -2.35 -70.0 -1.8 -70.7 -1.25 -71.45 -0.8 L-72.55 0.0 Q-75.4 1.7 -78.7 2.8 L-82.9 3.6 Q-88.05 3.75 -91.9 0.75 -92.0 0.6 -92.2 0.6 L-92.7 0.15 Q-95.45 -2.2 -96.95 -5.45 L-97.45 -6.45 Q-99.65 -12.15 -98.75 -18.05 L-98.65 -19.1 -98.3 -20.6 -97.25 -24.55 -96.45 -26.6 -93.65 -32.1 -93.1 -33.0 -91.15 -35.8 Q-89.5 -38.25 -87.2 -40.4 L-82.6 -44.15 -81.35 -44.85 Q-77.45 -47.25 -72.6 -47.85 L-68.5 -47.55 Q-64.3 -46.75 -61.5 -43.4 -59.1 -40.55 -60.25 -36.95 -61.35 -34.35 -64.15 -33.5 -67.85 -32.9 -70.65 -35.6 -72.3 -36.65 -74.1 -35.65 -80.6 -32.1 -84.2 -25.5 -85.6 -23.1 -86.35 -20.45 L-87.05 -17.3 -87.15 -16.65 Q-88.15 -11.75 -84.85 -8.4 -84.2 -8.05 -83.35 -8.05 -80.15 -8.75 -77.6 -10.55 -74.9 -12.35 -72.5 -14.45 L-68.85 -18.0 -68.8 -18.0 Q-65.9 -20.95 -63.3 -24.3 -62.45 -27.15 -60.6 -29.45 -56.05 -34.2 -49.05 -33.25 L-46.6 -32.6 Q-45.7 -33.4 -44.65 -33.9 L-44.05 -34.15 Q-40.85 -35.0 -38.6 -32.7 -37.35 -31.45 -37.05 -29.55 L-37.1 -28.25 Q-37.25 -27.15 -37.75 -26.1 -37.35 -26.2 -37.15 -26.65 L-37.05 -26.75 Q-35.35 -28.95 -33.95 -31.6 L-34.15 -32.3 -34.35 -34.3 Q-34.15 -37.9 -30.95 -39.45 -27.95 -40.6 -25.35 -38.75 -24.2 -37.9 -22.9 -37.4 -20.95 -36.7 -18.9 -36.45 -16.4 -35.65 -15.6 -33.1 -14.95 -30.15 -16.1 -27.45 L-15.65 -27.5 -15.3 -27.8 Q-12.35 -31.2 -10.8 -35.45 L-9.45 -38.45 Q-9.55 -38.7 -9.95 -38.6 -14.25 -37.1 -17.4 -39.95 -19.65 -42.95 -18.3 -46.35 -16.9 -48.85 -13.95 -49.35 L-3.8 -51.1 Q-2.65 -54.35 -0.4 -56.9 2.4 -59.05 5.7 -57.75 8.4 -56.45 9.05 -53.4 L9.3 -53.35 19.25 -54.95 Q22.65 -54.8 24.15 -51.85 24.75 -50.65 24.8 -49.2 24.75 -47.9 24.15 -46.8 23.45 -45.35 22.0 -44.6 L22.0 -44.55 Q24.85 -43.4 26.65 -40.95 L26.95 -40.85 Q29.6 -41.3 32.1 -42.2 34.05 -45.55 37.05 -47.6 38.85 -48.9 41.05 -49.5 L45.0 -49.65 Q49.1 -48.9 51.75 -45.55 L52.95 -45.6 54.35 -46.05 55.0 -46.35 Q60.55 -49.2 65.3 -53.3 L65.55 -53.45 M40.1 -32.65 Q40.8 -32.2 41.65 -32.3 44.85 -33.0 45.7 -36.3 46.45 -38.9 44.5 -40.75 43.4 -41.4 42.25 -41.05 39.35 -39.8 38.9 -36.7 38.3 -34.3 40.1 -32.65 M6.55 -34.8 Q6.8 -36.55 8.6 -39.3 10.35 -42.0 12.4 -43.05 L4.55 -41.5 1.65 -35.65 -1.15 -29.55 Q-1.15 -29.2 -0.4 -29.45 0.85 -30.1 3.15 -31.85 5.4 -33.6 6.55 -34.8 M18.3 -28.55 Q20.95 -30.35 21.05 -33.6 21.05 -35.7 19.35 -36.65 18.0 -37.25 16.75 -36.4 14.4 -34.7 14.0 -31.85 13.75 -29.45 15.75 -28.25 17.1 -27.8 18.3 -28.55 M-48.8 -23.05 Q-49.35 -24.65 -50.95 -25.0 -52.6 -25.15 -53.75 -24.1 L-54.95 -22.65 Q-56.35 -20.05 -55.1 -17.45 -54.2 -16.2 -52.6 -16.35 -49.45 -17.35 -48.8 -20.6 L-48.75 -20.6 -48.65 -21.5 -48.8 -23.05" fill="#000000" fill-rule="evenodd" stroke="none"/>
    <path d="M77.5 -57.85 Q80.75 -59.25 83.8 -58.1 88.15 -56.1 88.5 -51.05 91.65 -52.85 94.85 -51.25 98.45 -49.05 98.15 -44.6 L98.0 -43.95 97.6 -42.75 Q96.8 -41.3 95.65 -40.2 L95.65 -40.15 95.2 -39.7 94.55 -39.1 94.05 -38.6 91.05 -36.35 Q88.75 -34.75 86.1 -33.65 80.15 -30.75 74.5 -33.3 72.85 -34.45 71.85 -36.15 L71.75 -36.15 69.95 -33.25 69.75 -33.0 Q68.45 -30.65 66.2 -29.7 65.9 -29.5 65.55 -29.45 61.6 -28.6 58.9 -31.4 57.5 -33.05 57.35 -35.5 L56.45 -35.35 55.2 -32.85 Q53.65 -30.25 51.3 -28.4 L50.25 -27.6 Q46.3 -25.25 41.65 -25.85 37.7 -26.5 35.05 -29.55 L33.85 -31.55 31.5 -30.95 Q29.65 -26.75 26.1 -24.05 22.8 -21.5 18.6 -21.5 14.75 -21.6 11.8 -23.95 11.4 -23.9 11.15 -23.65 L9.85 -22.55 8.6 -21.7 Q6.05 -19.95 3.05 -19.0 -0.9 -17.6 -4.5 -18.9 -5.05 -19.05 -5.5 -19.35 L-6.5 -19.8 Q-7.6 -18.75 -8.9 -17.95 -12.35 -15.7 -16.65 -15.7 L-17.6 -15.7 -18.2 -15.8 Q-22.9 -16.6 -25.3 -20.8 L-25.95 -20.1 Q-30.6 -14.45 -37.45 -11.85 -40.85 -10.7 -43.8 -11.85 -44.9 -12.0 -45.8 -10.95 -47.1 -10.3 -48.45 -9.8 -53.5 -8.55 -57.75 -11.4 L-58.4 -10.85 Q-64.8 -4.35 -72.9 -0.15 -80.05 3.5 -87.15 0.5 -93.1 -2.55 -95.7 -9.1 -97.3 -13.3 -97.15 -17.75 L-97.15 -18.35 Q-96.85 -22.85 -95.4 -27.05 L-95.35 -27.05 -94.0 -30.4 -91.65 -34.9 -89.65 -37.95 Q-85.4 -44.05 -79.05 -47.95 L-78.2 -48.35 Q-70.5 -52.55 -62.75 -49.6 -57.35 -47.15 -56.6 -41.15 -56.6 -40.55 -56.75 -39.95 -58.0 -35.8 -62.35 -35.05 -64.25 -34.85 -65.8 -35.75 L-68.35 -37.45 -71.25 -37.5 Q-74.5 -35.8 -76.95 -33.0 -81.0 -28.7 -82.85 -23.5 L-83.6 -20.45 -83.9 -18.6 Q-84.75 -14.1 -81.65 -11.25 -79.25 -11.05 -77.15 -12.4 L-76.8 -12.65 Q-72.45 -15.2 -68.9 -18.7 L-66.4 -21.1 Q-63.8 -23.7 -61.2 -27.05 -58.65 -34.1 -51.2 -36.15 -47.55 -36.9 -44.2 -35.7 L-43.65 -36.05 Q-41.5 -37.75 -38.7 -37.3 -34.8 -36.3 -33.95 -32.45 L-33.85 -31.35 -33.7 -31.4 -32.1 -34.0 Q-32.6 -36.0 -32.2 -37.9 -31.55 -41.2 -28.25 -42.55 -26.05 -43.35 -24.15 -42.5 -22.2 -41.65 -20.5 -40.5 L-19.25 -40.1 -18.85 -39.95 Q-15.7 -39.75 -13.55 -37.7 -11.55 -35.2 -12.3 -31.85 L-12.1 -31.9 Q-9.4 -35.75 -7.9 -40.15 L-11.35 -39.9 Q-15.25 -40.55 -16.55 -44.35 -17.6 -48.4 -14.65 -51.0 -11.55 -52.7 -7.7 -52.95 L-1.7 -54.0 -0.2 -57.2 0.1 -57.8 Q2.1 -61.4 6.45 -61.2 8.7 -60.95 10.3 -59.5 L10.9 -58.85 Q11.7 -57.8 12.1 -56.5 L12.3 -56.45 22.45 -57.9 Q26.25 -57.4 27.65 -53.85 28.8 -49.75 25.9 -47.15 L25.95 -47.0 Q28.15 -45.8 29.75 -43.9 32.15 -44.3 34.3 -45.15 36.35 -48.55 39.75 -50.9 42.4 -52.55 45.8 -52.85 L48.35 -52.5 Q49.6 -52.3 50.65 -51.75 53.05 -50.5 54.75 -48.45 57.15 -49.05 59.35 -50.25 L64.65 -54.0 Q66.9 -56.4 70.15 -57.0 72.25 -57.1 74.0 -55.75 75.7 -57.0 77.5 -57.85 M41.0 -39.15 Q40.35 -36.5 42.35 -34.7 43.1 -34.15 44.05 -34.3 47.55 -35.05 48.55 -38.7 49.3 -41.55 47.2 -43.6 45.95 -44.35 44.7 -43.95 41.5 -42.6 41.0 -39.15 M22.0 -39.5 Q20.5 -40.15 19.1 -39.2 16.5 -37.35 16.1 -34.2 15.8 -31.55 18.0 -30.2 19.5 -29.7 20.85 -30.55 23.8 -32.5 23.9 -36.15 23.9 -38.45 22.0 -39.5 M2.15 -32.8 L2.85 -32.85 5.7 -35.05 8.55 -37.5 Q8.8 -39.1 10.0 -41.25 11.15 -43.35 12.5 -44.45 L7.5 -43.4 4.9 -38.25 2.15 -32.8 M-52.75 -25.3 Q-54.35 -22.45 -52.9 -19.6 -51.95 -18.2 -50.2 -18.35 -46.7 -19.4 -46.0 -23.05 L-45.95 -23.05 -45.85 -24.05 Q-45.75 -24.85 -46.0 -25.75 -46.55 -27.5 -48.35 -27.9 -50.15 -28.05 -51.45 -26.9 -52.2 -26.2 -52.75 -25.3" fill="#ffb316" fill-rule="evenodd" stroke="none"/>
    <path d="M47.6 -52.2 Q51.7 -51.45 54.3 -48.1 54.9 -47.8 55.55 -48.1 L56.95 -48.6 57.6 -48.9 Q63.15 -51.75 67.9 -55.85 L68.15 -56.0 Q71.45 -57.35 74.0 -55.1 L75.05 -55.9 76.85 -56.9 Q79.3 -58.35 82.2 -58.05 85.65 -57.25 87.2 -54.1 88.0 -52.1 87.65 -49.95 88.2 -50.15 88.65 -50.65 91.8 -52.4 94.9 -50.6 97.95 -48.45 97.5 -44.6 97.1 -42.95 96.05 -41.8 L96.05 -41.7 95.5 -41.1 94.5 -40.1 Q89.85 -35.6 83.6 -33.55 77.5 -31.4 73.15 -35.55 72.35 -36.5 71.85 -37.6 69.95 -34.15 67.15 -31.0 64.5 -29.25 61.65 -30.4 58.65 -31.6 58.0 -35.05 L57.9 -36.45 57.8 -36.55 Q56.2 -36.45 55.6 -35.4 53.15 -29.25 46.95 -27.0 40.2 -25.25 35.8 -29.85 34.85 -30.95 34.35 -32.35 L33.3 -32.2 31.05 -31.8 Q30.25 -29.8 29.05 -28.05 L28.9 -27.95 28.65 -27.6 Q24.05 -21.6 16.6 -22.45 13.95 -23.2 11.55 -25.05 10.1 -23.5 8.15 -22.3 4.35 -19.75 -0.25 -19.1 -2.75 -18.9 -4.9 -19.95 L-6.45 -20.75 -9.25 -18.65 Q-14.85 -15.05 -20.9 -17.4 -23.85 -19.2 -25.25 -22.3 -30.2 -15.05 -38.65 -12.35 -40.8 -11.8 -42.95 -12.35 -43.75 -12.5 -44.35 -13.05 -45.95 -11.6 -48.05 -10.8 -50.9 -9.85 -53.65 -10.45 L-55.0 -10.85 -57.75 -12.45 -58.5 -11.8 Q-61.85 -8.45 -65.7 -5.6 L-67.4 -4.35 -68.85 -3.35 -70.0 -2.55 Q-72.85 -0.85 -76.1 0.25 L-80.3 1.05 Q-85.45 1.25 -89.35 -1.8 -89.4 -1.95 -89.6 -1.95 L-90.15 -2.4 Q-92.85 -4.75 -94.4 -8.0 L-94.85 -9.0 Q-97.05 -14.7 -96.15 -20.6 L-96.05 -21.65 -95.75 -23.15 -94.65 -27.1 -93.85 -29.15 -91.1 -34.65 -90.5 -35.55 -88.55 -38.35 Q-86.9 -40.8 -84.6 -42.95 L-80.05 -46.7 -78.75 -47.4 Q-74.85 -49.8 -70.05 -50.4 L-65.9 -50.1 Q-61.75 -49.25 -58.95 -45.95 -56.5 -43.1 -57.7 -39.5 -58.75 -36.9 -61.6 -36.0 -65.25 -35.45 -68.05 -38.15 -69.7 -39.2 -71.5 -38.2 -78.05 -34.65 -81.6 -28.05 -83.0 -25.65 -83.75 -23.0 -84.3 -21.5 -84.45 -19.85 L-84.55 -19.2 Q-85.55 -14.3 -82.25 -10.95 -81.6 -10.6 -80.8 -10.55 -77.55 -11.35 -75.0 -13.1 -72.3 -14.9 -69.9 -17.0 L-66.25 -20.55 -66.2 -20.55 Q-63.35 -23.5 -60.7 -26.8 -59.7 -29.65 -57.65 -31.85 -53.3 -36.7 -46.45 -35.8 L-44.0 -35.15 -42.05 -36.45 -41.5 -36.65 Q-38.25 -37.55 -36.0 -35.25 -34.75 -34.0 -34.5 -32.1 L-34.5 -30.8 Q-34.7 -29.65 -35.2 -28.65 -34.75 -28.75 -34.55 -29.2 L-34.5 -29.3 Q-32.75 -31.5 -31.4 -34.15 L-31.6 -34.85 -31.8 -36.85 Q-31.55 -40.4 -28.35 -42.0 -25.35 -43.15 -22.8 -41.3 -21.65 -40.45 -20.35 -39.95 -18.4 -39.25 -16.35 -39.0 -13.85 -38.2 -13.0 -35.65 -12.4 -32.7 -13.55 -30.0 L-13.1 -30.05 -12.7 -30.35 Q-9.75 -33.75 -8.2 -38.0 L-6.85 -41.0 -7.35 -41.1 Q-11.7 -39.65 -14.8 -42.5 -17.1 -45.5 -15.7 -48.85 -14.3 -51.45 -11.35 -51.9 L-1.2 -53.65 Q-0.1 -56.9 2.15 -59.45 4.95 -61.6 8.3 -60.3 10.95 -58.95 11.65 -55.9 L11.85 -55.85 21.85 -57.5 Q25.2 -57.35 26.75 -54.4 27.3 -53.2 27.4 -51.75 27.35 -50.45 26.7 -49.35 26.05 -47.9 24.6 -47.15 L24.6 -47.1 Q27.45 -45.95 29.2 -43.5 L29.5 -43.4 Q32.2 -43.85 34.7 -44.75 36.6 -48.1 39.65 -50.15 41.4 -51.45 43.6 -52.05 L47.6 -52.2 M22.75 -35.85 Q22.75 -37.45 21.45 -38.15 20.45 -38.55 19.5 -37.95 17.8 -36.7 17.5 -34.55 17.3 -32.75 18.75 -31.85 19.8 -31.55 20.7 -32.1 22.65 -33.45 22.75 -35.85 M15.0 -45.6 L7.15 -44.05 4.25 -38.2 1.45 -32.1 2.2 -32.0 Q3.45 -32.65 5.7 -34.4 L9.15 -37.35 Q9.4 -39.1 11.15 -41.85 12.95 -44.55 15.0 -45.6 M42.35 -39.25 Q41.9 -37.5 43.25 -36.25 43.8 -35.9 44.4 -36.0 46.75 -36.5 47.45 -38.95 47.95 -40.9 46.55 -42.25 45.7 -42.75 44.85 -42.5 42.7 -41.55 42.35 -39.25 M-48.7 -26.45 Q-49.9 -26.55 -50.75 -25.8 L-51.65 -24.7 Q-52.7 -22.75 -51.75 -20.85 -51.1 -19.9 -49.95 -20.0 -47.55 -20.75 -47.1 -23.15 L-47.05 -23.2 Q-46.95 -23.5 -47.0 -23.85 -46.9 -24.4 -47.1 -25.0 -47.5 -26.2 -48.7 -26.45" fill="#ffb316" fill-rule="evenodd" stroke="none"/>
    <path d="M22.75 -35.85 Q22.75 -37.45 21.45 -38.15 20.45 -38.55 19.5 -37.95 17.8 -36.7 17.5 -34.55 17.3 -32.75 18.75 -31.85 19.8 -31.55 20.7 -32.1 22.65 -33.45 22.75 -35.85 M15.0 -45.6 L7.15 -44.05 4.25 -38.2 1.45 -32.1 2.2 -32.0 Q3.45 -32.65 5.7 -34.4 L9.15 -37.35 Q9.4 -39.1 11.15 -41.85 12.95 -44.55 15.0 -45.6 M42.35 -39.25 Q41.9 -37.5 43.25 -36.25 43.8 -35.9 44.4 -36.0 46.75 -36.5 47.45 -38.95 47.95 -40.9 46.55 -42.25 45.7 -42.75 44.85 -42.5 42.7 -41.55 42.35 -39.25 M-48.7 -26.45 Q-49.9 -26.55 -50.75 -25.8 L-51.65 -24.7 Q-52.7 -22.75 -51.75 -20.85 -51.1 -19.9 -49.95 -20.0 -47.55 -20.75 -47.1 -23.15 L-47.05 -23.2 Q-46.95 -23.5 -47.0 -23.85 -46.9 -24.4 -47.1 -25.0 -47.5 -26.2 -48.7 -26.45" fill="none" stroke="#ffb316" stroke-linecap="round" stroke-linejoin="round" stroke-width="0.7000000000000001"/>
    <path d="M71.2 -52.8 Q72.3 -52.35 72.75 -51.2 73.0 -50.55 72.85 -49.9 L72.9 -49.7 73.8 -50.45 Q75.55 -52.05 77.7 -53.3 79.2 -54.45 81.2 -54.6 83.1 -54.4 84.05 -52.7 84.65 -49.55 82.75 -46.85 L80.7 -42.4 Q80.55 -41.95 80.7 -41.5 81.65 -41.25 82.6 -41.8 87.1 -43.85 90.35 -47.35 91.45 -48.2 92.75 -47.75 94.15 -47.05 94.2 -45.35 93.45 -43.25 91.55 -41.9 86.25 -36.7 78.55 -36.25 76.55 -36.55 75.4 -38.25 74.3 -40.7 75.75 -42.9 L77.65 -47.15 77.45 -47.5 75.85 -46.6 Q69.75 -41.35 65.8 -34.25 64.9 -33.25 63.55 -33.5 62.3 -33.7 61.75 -34.85 61.45 -37.15 62.8 -39.0 L64.2 -42.15 64.45 -42.55 64.75 -43.35 63.2 -42.55 Q58.85 -39.75 53.5 -39.15 L53.25 -38.25 Q51.6 -31.9 45.1 -30.05 42.05 -29.45 39.7 -31.0 36.8 -33.0 36.35 -36.65 L35.95 -36.5 Q32.3 -35.15 28.5 -35.2 L28.3 -34.1 Q27.25 -29.1 22.8 -26.55 20.15 -25.3 17.3 -25.9 16.6 -26.0 15.95 -26.4 13.5 -27.5 12.3 -29.9 L11.6 -29.3 Q7.2 -25.0 1.45 -22.75 -1.85 -21.75 -4.55 -23.6 L-5.0 -24.0 Q-5.7 -24.7 -6.2 -25.55 L-6.75 -25.1 Q-10.0 -21.25 -15.0 -19.75 -19.1 -19.3 -21.4 -22.4 -23.3 -27.0 -21.55 -31.85 L-22.8 -32.15 -23.0 -32.15 Q-27.2 -23.45 -34.65 -17.6 L-35.6 -17.1 Q-36.0 -16.8 -36.4 -16.65 -40.8 -14.25 -44.75 -16.8 -48.05 -13.05 -53.0 -13.9 -56.0 -14.7 -57.5 -17.45 L-58.2 -16.85 Q-64.3 -10.15 -72.15 -5.2 -72.8 -4.8 -73.5 -4.45 -77.55 -2.2 -82.35 -2.5 -84.5 -2.8 -86.4 -3.85 -90.25 -6.1 -91.75 -10.4 L-91.85 -10.5 Q-93.0 -14.0 -92.85 -17.75 L-92.55 -21.55 -92.5 -21.55 -91.35 -26.1 -90.35 -28.65 -88.55 -32.25 Q-83.8 -40.35 -75.55 -45.15 -71.65 -47.3 -67.3 -46.7 -65.7 -46.4 -64.3 -45.7 -62.35 -44.65 -61.0 -42.8 -60.35 -41.6 -60.95 -40.45 -61.95 -39.05 -63.65 -39.35 -65.05 -40.25 -66.55 -41.5 -68.15 -42.45 -70.15 -42.1 -75.1 -40.8 -78.55 -37.05 -84.95 -31.05 -87.3 -22.8 L-87.75 -20.85 Q-88.9 -15.85 -86.8 -11.2 -84.95 -7.45 -80.9 -7.05 -77.25 -7.55 -74.3 -9.4 L-71.6 -11.1 Q-68.85 -13.2 -66.4 -15.4 -61.85 -19.7 -57.9 -24.45 -57.0 -27.4 -54.8 -29.75 -52.65 -32.1 -49.35 -32.45 -45.75 -32.55 -43.3 -30.2 -43.15 -30.05 -43.0 -30.05 L-41.4 -33.05 -40.95 -33.35 Q-39.05 -33.85 -37.9 -32.45 -37.1 -31.45 -37.55 -30.25 L-39.15 -26.55 -39.2 -26.55 Q-40.55 -24.05 -41.3 -21.3 -41.3 -20.55 -40.65 -20.25 -37.1 -20.75 -34.65 -23.6 -30.25 -28.2 -27.6 -33.85 -27.4 -34.15 -27.45 -34.4 -28.6 -35.35 -28.4 -36.9 -28.05 -38.15 -26.9 -38.65 -25.65 -39.2 -24.6 -38.4 L-22.6 -37.05 -21.4 -36.6 -19.85 -36.15 -17.9 -35.95 Q-17.25 -35.9 -16.7 -35.4 -15.8 -34.45 -16.0 -33.15 -16.15 -32.2 -16.55 -31.35 L-16.65 -30.75 Q-17.55 -28.4 -17.55 -25.8 -17.4 -24.9 -16.55 -24.55 -13.7 -24.75 -11.75 -26.7 L-10.9 -27.45 Q-6.65 -31.65 -4.75 -37.2 L-2.55 -42.1 -2.5 -42.15 -1.05 -45.5 -1.95 -45.4 -10.55 -43.95 Q-12.05 -44.15 -12.65 -45.5 -13.05 -47.05 -11.9 -48.1 L-5.95 -49.25 1.3 -50.55 3.9 -56.1 4.95 -57.0 6.6 -57.05 Q7.85 -56.65 8.2 -55.3 L7.9 -53.65 6.95 -51.5 22.25 -54.05 Q23.5 -53.75 23.9 -52.45 24.2 -51.15 23.35 -50.3 22.95 -49.7 22.2 -49.55 L11.2 -47.65 4.8 -46.55 -1.65 -32.3 Q-2.75 -30.15 -2.0 -27.85 -0.95 -26.95 0.4 -27.45 L2.9 -28.55 4.55 -29.6 5.35 -30.2 Q6.8 -31.15 8.05 -32.35 L8.85 -32.95 12.0 -36.1 Q12.75 -39.6 15.5 -42.05 17.65 -44.0 20.85 -44.3 24.55 -44.2 26.75 -41.45 L27.7 -39.8 Q33.0 -39.95 37.45 -42.25 L38.1 -43.55 Q39.15 -45.7 41.05 -47.1 42.25 -48.0 43.8 -48.4 46.35 -49.2 48.8 -48.35 51.9 -47.0 53.0 -43.85 L53.1 -43.8 Q57.5 -44.5 61.05 -46.65 L63.3 -47.95 65.05 -49.2 69.2 -52.4 Q70.1 -53.05 71.2 -52.8 M23.75 -36.15 Q23.75 -38.3 21.95 -39.3 20.55 -39.9 19.25 -39.05 16.8 -37.3 16.4 -34.3 16.1 -31.8 18.2 -30.55 19.6 -30.1 20.9 -30.9 23.65 -32.7 23.75 -36.15 M41.3 -39.2 Q40.7 -36.75 42.55 -35.0 43.3 -34.5 44.15 -34.65 47.45 -35.35 48.4 -38.8 49.15 -41.5 47.15 -43.45 46.0 -44.1 44.75 -43.75 41.8 -42.45 41.3 -39.2 M-52.5 -25.2 Q-54.0 -22.55 -52.65 -19.85 -51.75 -18.55 -50.1 -18.7 -46.8 -19.7 -46.1 -23.1 L-46.05 -23.1 Q-45.95 -23.6 -46.0 -24.05 -45.9 -24.85 -46.1 -25.65 -46.7 -27.3 -48.35 -27.7 -50.05 -27.85 -51.25 -26.75 L-52.5 -25.2" fill="#ff0000" fill-rule="evenodd" stroke="none"/>
    <path d="M23.75 -36.15 Q23.75 -38.3 21.95 -39.3 20.55 -39.9 19.25 -39.05 16.8 -37.3 16.4 -34.3 16.1 -31.8 18.2 -30.55 19.6 -30.1 20.9 -30.9 23.65 -32.7 23.75 -36.15 M41.3 -39.2 Q40.7 -36.75 42.55 -35.0 43.3 -34.5 44.15 -34.65 47.45 -35.35 48.4 -38.8 49.15 -41.5 47.15 -43.45 46.0 -44.1 44.75 -43.75 41.8 -42.45 41.3 -39.2 M-52.5 -25.2 Q-54.0 -22.55 -52.65 -19.85 -51.75 -18.55 -50.1 -18.7 -46.8 -19.7 -46.1 -23.1 L-46.05 -23.1 Q-45.95 -23.6 -46.0 -24.05 -45.9 -24.85 -46.1 -25.65 -46.7 -27.3 -48.35 -27.7 -50.05 -27.85 -51.25 -26.75 L-52.5 -25.2" fill="none" stroke="#ffb316" stroke-linecap="round" stroke-linejoin="round" stroke-width="0.30000000000000004"/>
    <path d="M62.8 3.35 Q63.05 0.25 61.25 -2.85 59.4 -5.9 56.35 -6.45 52.65 -6.65 50.35 -3.85 48.05 -1.1 47.6 2.5 47.35 5.6 49.0 8.5 50.7 11.45 53.75 11.95 57.2 12.15 59.8 9.5 62.35 6.85 62.8 3.35 M-65.5 30.15 L-62.85 29.45 Q-66.2 25.4 -70.0 21.7 L-69.7 26.85 -69.4 32.0 Q-67.5 30.95 -65.5 30.15 M-33.5 21.2 Q-31.15 20.05 -31.4 17.35 -31.95 15.05 -34.05 14.1 -36.2 13.15 -38.15 13.35 L-39.3 13.45 -37.8 22.45 Q-35.85 22.4 -33.5 21.2 M34.35 15.3 Q36.1 12.4 35.1 8.85 34.1 5.35 31.35 3.35 28.9 1.75 25.85 2.1 22.8 2.5 21.05 4.85 19.1 8.0 20.25 11.45 21.45 14.9 24.4 16.95 26.8 18.45 29.75 18.0 32.7 17.55 34.35 15.3 M57.95 -19.45 Q64.25 -18.6 68.85 -13.95 L68.2 -21.4 Q73.55 -23.0 79.35 -23.65 L89.4 -12.85 Q94.2 -7.55 100.05 -3.1 L99.9 -4.05 Q99.4 -8.95 99.15 -14.95 98.9 -21.0 99.1 -25.8 105.6 -27.85 112.65 -27.85 L112.65 -24.1 112.7 -20.4 113.4 -6.95 Q114.15 4.4 115.9 15.75 L112.3 16.85 109.0 17.3 105.1 17.35 Q98.9 13.6 94.05 8.55 L83.7 -1.75 Q83.85 1.55 84.3 4.75 85.45 12.6 87.9 20.3 L79.2 21.55 73.95 21.65 72.4 12.15 Q69.2 18.15 63.75 21.8 58.25 25.5 51.5 24.9 48.5 24.55 45.85 23.2 L45.2 24.3 Q40.65 30.5 32.9 32.05 25.15 33.6 18.5 29.45 12.15 25.05 8.85 18.25 5.5 11.4 6.7 4.05 L1.15 5.8 Q4.25 21.15 9.3 35.95 4.95 38.0 0.4 39.0 L-5.45 40.15 Q-9.3 25.2 -12.4 10.0 L-17.85 11.75 Q-16.95 13.35 -16.65 15.15 -16.0 20.5 -18.3 23.4 -20.6 26.3 -22.9 27.6 -21.2 28.35 -17.35 31.35 -13.45 34.3 -10.4 37.7 -15.9 42.85 -22.3 46.55 -25.85 42.05 -28.9 39.5 -32.0 36.9 -35.7 33.25 L-34.3 40.7 -32.4 48.0 -35.05 48.4 Q-38.2 48.9 -42.1 50.05 -46.0 51.25 -48.9 52.5 L-49.45 50.05 -49.7 50.25 -57.15 41.8 -63.45 44.0 Q-66.65 45.15 -69.7 46.75 L-69.2 54.55 Q-75.55 56.05 -82.15 56.6 L-82.2 56.15 -83.75 57.35 Q-91.2 62.5 -99.75 60.8 -108.25 59.15 -113.7 51.7 -119.65 42.35 -116.45 32.15 -113.25 21.9 -104.95 15.75 -101.75 13.4 -98.05 11.95 -93.8 18.0 -91.1 24.85 -94.6 25.8 -97.6 27.8 -101.25 30.35 -103.25 34.3 -105.25 38.3 -102.6 42.6 -100.2 45.7 -96.25 46.15 -92.35 46.65 -89.75 44.7 -86.95 42.3 -86.0 40.4 L-84.1 36.35 -83.5 36.85 Q-84.25 25.05 -84.15 13.3 -77.65 9.8 -70.45 7.35 L-68.95 6.8 Q-60.8 15.95 -53.0 25.3 L-55.15 6.6 Q-45.75 4.55 -36.05 3.65 -30.7 3.25 -25.2 5.6 L-26.15 0.75 Q-16.4 -2.45 -6.4 -5.0 L9.5 -8.75 10.85 -4.95 Q15.9 -10.7 23.6 -11.6 31.3 -12.55 37.8 -8.35 L38.25 -8.0 Q41.15 -13.6 46.2 -16.85 51.25 -20.1 57.95 -19.45" fill="#000000" fill-rule="evenodd" stroke="none"/>
    <path d="M57.95 -19.45 Q51.25 -20.1 46.2 -16.85 41.15 -13.6 38.25 -8.0 L37.8 -8.35 Q31.3 -12.55 23.6 -11.6 15.9 -10.7 10.85 -4.95 L9.5 -8.75 -6.4 -5.0 Q-16.4 -2.45 -26.15 0.75 L-25.2 5.6 Q-30.7 3.25 -36.05 3.65 -45.75 4.55 -55.15 6.6 L-53.0 25.3 Q-60.8 15.95 -68.95 6.8 L-70.45 7.35 Q-77.65 9.8 -84.15 13.3 -84.25 25.05 -83.5 36.85 L-84.1 36.35 -86.0 40.4 Q-86.95 42.3 -89.75 44.7 -92.35 46.65 -96.25 46.15 -100.2 45.7 -102.6 42.6 -105.25 38.3 -103.25 34.3 -101.25 30.35 -97.6 27.8 -94.6 25.8 -91.1 24.85 -93.8 18.0 -98.05 11.95 -101.75 13.4 -104.95 15.75 -113.25 21.9 -116.45 32.15 -119.65 42.35 -113.7 51.7 -108.25 59.15 -99.75 60.8 -91.2 62.5 -83.75 57.35 L-82.2 56.15 -82.15 56.6 Q-75.55 56.05 -69.2 54.55 L-69.7 46.75 Q-66.65 45.15 -63.45 44.0 L-57.15 41.8 -49.7 50.25 -49.45 50.05 -48.9 52.5 Q-46.0 51.25 -42.1 50.05 -38.2 48.9 -35.05 48.4 L-32.4 48.0 -34.3 40.7 -35.7 33.25 Q-32.0 36.9 -28.9 39.5 -25.85 42.05 -22.3 46.55 -15.9 42.85 -10.4 37.7 -13.45 34.3 -17.35 31.35 -21.2 28.35 -22.9 27.6 -20.6 26.3 -18.3 23.4 -16.0 20.5 -16.65 15.15 -16.95 13.35 -17.85 11.75 L-12.4 10.0 Q-9.3 25.2 -5.45 40.15 L0.4 39.0 Q4.95 38.0 9.3 35.95 4.25 21.15 1.15 5.8 L6.7 4.05 Q5.5 11.4 8.85 18.25 12.15 25.05 18.5 29.45 25.15 33.6 32.9 32.05 40.65 30.5 45.2 24.3 L45.85 23.2 Q48.5 24.55 51.5 24.9 58.25 25.5 63.75 21.8 69.2 18.15 72.4 12.15 L73.95 21.65 79.2 21.55 87.9 20.3 Q85.45 12.6 84.3 4.75 83.85 1.55 83.7 -1.75 L94.05 8.55 Q98.9 13.6 105.1 17.35 L109.0 17.3 112.3 16.85 115.9 15.75 Q114.15 4.4 113.4 -6.95 L112.7 -20.4 112.65 -24.1 112.65 -27.85 Q105.6 -27.85 99.1 -25.8 98.9 -21.0 99.15 -14.95 99.4 -8.95 99.9 -4.05 L100.05 -3.1 Q94.2 -7.55 89.4 -12.85 L79.35 -23.65 Q73.55 -23.0 68.2 -21.4 L68.85 -13.95 Q64.25 -18.6 57.95 -19.45 M34.35 15.3 Q32.7 17.55 29.75 18.0 26.8 18.45 24.4 16.95 21.45 14.9 20.25 11.45 19.1 8.0 21.05 4.85 22.8 2.5 25.85 2.1 28.9 1.75 31.35 3.35 34.1 5.35 35.1 8.85 36.1 12.4 34.35 15.3 M-33.5 21.2 Q-35.85 22.4 -37.8 22.45 L-39.3 13.45 -38.15 13.35 Q-36.2 13.15 -34.05 14.1 -31.95 15.05 -31.4 17.35 -31.15 20.05 -33.5 21.2 M-65.5 30.15 Q-67.5 30.95 -69.4 32.0 L-69.7 26.85 -70.0 21.7 Q-66.2 25.4 -62.85 29.45 L-65.5 30.15 M62.8 3.35 Q62.35 6.85 59.8 9.5 57.2 12.15 53.75 11.95 50.7 11.45 49.0 8.5 47.35 5.6 47.6 2.5 48.05 -1.1 50.35 -3.85 52.65 -6.65 56.35 -6.45 59.4 -5.9 61.25 -2.85 63.05 0.25 62.8 3.35" fill="none" stroke="#000000" stroke-linecap="round" stroke-linejoin="round" stroke-width="1.05"/>
    <path d="M104.1 -20.6 L107.9 -21.25 Q108.45 -4.35 110.8 12.0 L107.1 12.4 106.2 12.5 Q96.8 5.7 88.8 -3.0 L79.9 -11.7 78.4 -13.1 78.4 -11.05 Q78.95 -2.25 80.35 6.7 80.8 11.45 81.85 16.4 L78.5 16.65 77.95 16.7 76.35 6.8 Q74.6 -4.3 73.6 -17.4 L77.85 -18.2 81.6 -14.4 Q92.3 -2.95 104.45 6.25 L106.1 7.45 106.0 6.45 105.85 5.4 105.5 2.65 Q103.8 -9.2 104.1 -20.6" fill="#000000" fill-rule="evenodd" stroke="none"/>
    <path d="M104.1 -20.6 Q103.8 -9.2 105.5 2.65 L105.85 5.4 106.0 6.45 106.1 7.45 104.45 6.25 Q92.3 -2.95 81.6 -14.4 L77.85 -18.2 73.6 -17.4 Q74.6 -4.3 76.35 6.8 L77.95 16.7 78.5 16.65 81.85 16.4 Q80.8 11.45 80.35 6.7 78.95 -2.25 78.4 -11.05 L78.4 -13.1 79.9 -11.7 88.8 -3.0 Q96.8 5.7 106.2 12.5 L107.1 12.4 110.8 12.0 Q108.45 -4.35 107.9 -21.25 L104.1 -20.6 Z" fill="none" stroke="#000000" stroke-linecap="round" stroke-linejoin="round" stroke-width="2.2"/>
    <path d="M64.1 -7.0 Q60.95 -10.85 56.7 -11.4 52.45 -11.75 48.8 -8.6 43.9 -4.55 43.05 2.0 42.35 7.65 45.85 12.3 48.85 16.0 53.1 16.55 57.7 16.9 61.5 13.65 66.25 9.7 67.05 3.45 67.7 -2.15 64.1 -7.0 M70.3 2.7 Q69.4 9.95 64.4 15.2 59.35 20.5 51.95 20.0 45.9 19.0 42.6 13.7 39.3 8.35 39.85 2.4 40.7 -4.8 45.4 -10.1 50.1 -15.4 57.35 -14.95 62.95 -14.05 66.85 -8.75 70.75 -3.45 70.3 2.7" fill="#000000" fill-rule="evenodd" stroke="none"/>
    <path d="M64.1 -7.0 Q60.95 -10.85 56.7 -11.4 52.45 -11.75 48.8 -8.6 43.9 -4.55 43.05 2.0 42.35 7.65 45.85 12.3 48.85 16.0 53.1 16.55 57.7 16.9 61.5 13.65 66.25 9.7 67.05 3.45 67.7 -2.15 64.1 -7.0 M70.3 2.7 Q69.4 9.95 64.4 15.2 59.35 20.5 51.95 20.0 45.9 19.0 42.6 13.7 39.3 8.35 39.85 2.4 40.7 -4.8 45.4 -10.1 50.1 -15.4 57.35 -14.95 62.95 -14.05 66.85 -8.75 70.75 -3.45 70.3 2.7" fill="none" stroke="#000000" stroke-linecap="round" stroke-linejoin="round" stroke-width="2.2"/>
    <path d="M43.05 7.35 Q45.25 14.95 41.25 21.5 38.1 26.0 32.0 27.25 26.0 28.3 21.4 25.35 14.95 20.85 12.35 13.45 9.75 6.1 14.1 -0.95 17.6 -5.75 23.75 -6.75 29.85 -7.7 35.2 -4.3 40.9 -0.2 43.05 7.35 M34.2 -0.75 Q29.9 -3.6 24.5 -2.65 19.7 -1.65 17.1 2.05 14.0 7.1 15.65 12.45 17.3 17.8 21.8 20.95 25.85 23.55 31.0 22.65 35.9 21.65 38.45 18.0 41.1 13.95 40.15 8.6 38.85 2.55 34.2 -0.75" fill="#000000" fill-rule="evenodd" stroke="none"/>
    <path d="M43.05 7.35 Q45.25 14.95 41.25 21.5 38.1 26.0 32.0 27.25 26.0 28.3 21.4 25.35 14.95 20.85 12.35 13.45 9.75 6.1 14.1 -0.95 17.6 -5.75 23.75 -6.75 29.85 -7.7 35.2 -4.3 40.9 -0.2 43.05 7.35 M34.2 -0.75 Q29.9 -3.6 24.5 -2.65 19.7 -1.65 17.1 2.05 14.0 7.1 15.65 12.45 17.3 17.8 21.8 20.95 25.85 23.55 31.0 22.65 35.9 21.65 38.45 18.0 41.1 13.95 40.15 8.6 38.85 2.55 34.2 -0.75" fill="none" stroke="#000000" stroke-linecap="round" stroke-linejoin="round" stroke-width="2.2"/>
    <path d="M7.25 -4.2 L7.45 -2.8 7.75 -1.45 -3.75 1.95 -4.6 2.15 -4.45 3.0 Q-2.65 13.15 -0.5 22.2 1.35 28.1 3.1 32.9 L0.15 33.75 -1.7 34.2 Q-5.7 17.8 -8.35 4.5 L-8.5 3.55 -9.5 3.75 Q-14.7 5.15 -19.55 7.0 L-20.45 7.25 -20.95 5.4 -21.3 3.75 -17.15 2.55 Q-10.8 0.5 -4.35 -1.05 L0.45 -2.4 7.25 -4.2" fill="#000000" fill-rule="evenodd" stroke="none"/>
    <path d="M7.25 -4.2 L0.45 -2.4 -4.35 -1.05 Q-10.8 0.5 -17.15 2.55 L-21.3 3.75 -20.95 5.4 -20.45 7.25 -19.55 7.0 Q-14.7 5.15 -9.5 3.75 L-8.5 3.55 -8.35 4.5 Q-5.7 17.8 -1.7 34.2 L0.15 33.75 3.1 32.9 Q1.35 28.1 -0.5 22.2 -2.65 13.15 -4.45 3.0 L-4.6 2.15 -3.75 1.95 7.75 -1.45 7.45 -2.8 7.25 -4.2 Z" fill="none" stroke="#000000" stroke-linecap="round" stroke-linejoin="round" stroke-width="2.2"/>
    <path d="M-38.45 10.6 L-43.3 11.2 -44.25 11.3 -44.15 12.25 Q-43.4 18.65 -42.05 25.95 L-41.9 26.75 -40.25 26.6 -34.05 25.55 Q-30.0 24.65 -27.5 21.85 -25.9 19.75 -26.4 17.05 -27.9 9.25 -38.45 10.6 M-38.65 8.65 L-35.15 8.35 Q-31.3 8.1 -27.0 10.1 -22.7 12.15 -21.8 15.75 -20.65 22.2 -29.25 26.8 L-30.6 27.5 -29.35 28.4 -25.5 31.05 Q-21.35 33.8 -17.65 37.3 L-21.0 39.75 Q-24.65 35.55 -28.8 32.35 L-33.45 28.5 -33.8 28.2 -41.25 29.95 -41.15 30.75 Q-40.8 35.15 -39.95 39.15 L-39.05 42.8 -38.8 43.8 -42.85 44.55 Q-46.4 28.8 -49.15 10.05 L-38.65 8.65" fill="#000000" fill-rule="evenodd" stroke="none"/>
    <path d="M-38.65 8.65 L-49.15 10.05 Q-46.4 28.8 -42.85 44.55 L-38.8 43.8 -39.05 42.8 -39.95 39.15 Q-40.8 35.15 -41.15 30.75 L-41.25 29.95 -33.8 28.2 -33.45 28.5 -28.8 32.35 Q-24.65 35.55 -21.0 39.75 L-17.65 37.3 Q-21.35 33.8 -25.5 31.05 L-29.35 28.4 -30.6 27.5 -29.25 26.8 Q-20.65 22.2 -21.8 15.75 -22.7 12.15 -27.0 10.1 -31.3 8.1 -35.15 8.35 L-38.65 8.65 M-38.45 10.6 Q-27.9 9.25 -26.4 17.05 -25.9 19.75 -27.5 21.85 -30.0 24.65 -34.05 25.55 L-40.25 26.6 -41.9 26.75 -42.05 25.95 Q-43.4 18.65 -44.15 12.25 L-44.25 11.3 -43.3 11.2 -38.45 10.6" fill="none" stroke="#000000" stroke-linecap="round" stroke-linejoin="round" stroke-width="2.2"/>
    <path d="M-72.1 16.7 L-73.75 17.5 -74.35 17.7 -74.35 18.3 Q-74.65 26.9 -74.3 34.85 L-74.1 41.3 -72.85 40.5 Q-69.0 38.15 -64.8 36.7 -61.35 35.3 -57.8 34.55 L-56.25 34.2 -57.3 33.0 -69.65 19.4 -72.1 16.7 M-54.25 36.9 L-54.85 37.1 -57.9 37.8 Q-60.4 38.25 -62.9 39.1 -69.15 41.4 -73.5 44.45 L-73.9 44.8 -73.95 50.45 -77.2 51.1 Q-77.7 33.0 -77.1 16.7 -73.7 14.6 -70.2 13.4 L-65.1 19.25 Q-56.6 28.75 -48.35 38.8 L-50.65 40.65 -54.25 36.9" fill="#000000" fill-rule="evenodd" stroke="none"/>
    <path d="M-54.25 36.9 L-50.65 40.65 -48.35 38.8 Q-56.6 28.75 -65.1 19.25 L-70.2 13.4 Q-73.7 14.6 -77.1 16.7 -77.7 33.0 -77.2 51.1 L-73.95 50.45 -73.9 44.8 -73.5 44.45 Q-69.15 41.4 -62.9 39.1 -60.4 38.25 -57.9 37.8 L-54.85 37.1 -54.25 36.9 M-72.1 16.7 L-69.65 19.4 -57.3 33.0 -56.25 34.2 -57.8 34.55 Q-61.35 35.3 -64.8 36.7 -69.0 38.15 -72.85 40.5 L-74.1 41.3 -74.3 34.85 Q-74.65 26.9 -74.35 18.3 L-74.35 17.7 -73.75 17.5 -72.1 16.7" fill="none" stroke="#000000" stroke-linecap="round" stroke-linejoin="round" stroke-width="2.2"/>
    <path d="M-111.55 33.15 Q-108.8 25.1 -101.95 19.95 L-99.25 18.2 -98.25 19.55 -97.3 21.45 Q-99.45 22.6 -101.2 23.9 -106.5 27.8 -108.55 33.75 -110.55 39.7 -106.75 45.65 -103.2 50.45 -97.7 51.5 -92.15 52.6 -87.45 49.35 -84.65 47.15 -82.2 44.2 L-81.85 44.4 -80.0 46.2 Q-83.15 50.05 -86.85 52.65 -92.35 56.35 -98.95 55.25 -105.55 54.1 -109.55 48.7 -114.25 41.25 -111.55 33.15" fill="#000000" fill-rule="evenodd" stroke="none"/>
    <path d="M-111.55 33.15 Q-114.25 41.25 -109.55 48.7 -105.55 54.1 -98.95 55.25 -92.35 56.35 -86.85 52.65 -83.15 50.05 -80.0 46.2 L-81.85 44.4 -82.2 44.2 Q-84.65 47.15 -87.45 49.35 -92.15 52.6 -97.7 51.5 -103.2 50.45 -106.75 45.65 -110.55 39.7 -108.55 33.75 -106.5 27.8 -101.2 23.9 -99.45 22.6 -97.3 21.45 L-98.25 19.55 -99.25 18.2 -101.95 19.95 Q-108.8 25.1 -111.55 33.15 Z" fill="none" stroke="#000000" stroke-linecap="round" stroke-linejoin="round" stroke-width="2.2"/>
    <path d="M27.55 -2.95 Q24.55 -2.6 22.75 -0.25 20.8 2.95 22.0 6.35 23.15 9.8 26.15 11.85 28.55 13.4 31.45 12.9 34.4 12.45 36.05 10.25 37.85 7.3 36.85 3.75 35.85 0.25 33.1 -1.75 30.6 -3.3 27.55 -2.95 M25.35 -16.7 Q33.0 -17.6 39.55 -13.4 L39.95 -13.1 Q42.9 -18.7 47.9 -21.95 52.95 -25.15 59.7 -24.55 66.0 -23.7 70.55 -19.0 L69.9 -26.45 Q75.25 -28.1 81.05 -28.7 L91.1 -17.9 Q95.95 -12.6 101.75 -8.2 L101.65 -9.15 Q101.1 -14.0 100.85 -19.95 100.6 -25.85 100.8 -30.7 107.3 -32.75 114.4 -32.7 L114.4 -29.1 114.4 -25.45 115.1 -12.05 Q115.85 -0.7 117.6 10.65 116.1 11.3 114.0 11.75 L110.7 12.25 106.8 12.25 Q100.65 8.5 95.8 3.45 L85.45 -6.85 Q85.55 -3.55 86.05 -0.3 87.2 7.55 89.65 15.2 L80.95 16.45 Q78.4 16.7 75.7 16.55 L74.1 7.1 Q70.95 13.05 65.45 16.75 59.95 20.4 53.25 19.85 50.2 19.45 47.6 18.1 L46.9 19.2 Q42.4 25.45 34.6 27.0 26.85 28.55 20.2 24.35 13.9 20.0 10.55 13.15 7.25 6.3 8.45 -1.05 5.7 -0.1 2.9 0.7 6.0 16.05 11.0 30.85 6.7 32.9 2.1 33.9 L-3.75 35.05 Q-7.6 20.1 -10.65 4.95 L-16.1 6.7 Q-15.2 8.25 -14.9 10.1 -14.3 15.45 -16.55 18.3 -18.85 21.2 -21.15 22.5 -19.45 23.25 -15.6 26.25 -11.75 29.25 -8.65 32.65 -14.15 37.75 -20.6 41.5 -24.15 37.0 -27.2 34.4 L-33.95 28.2 -32.6 35.6 Q-31.95 38.75 -30.7 42.95 L-33.35 43.35 Q-36.45 43.85 -40.35 45.0 -44.3 46.15 -47.2 47.45 L-47.7 45.0 -47.95 45.2 -55.4 36.7 -61.7 38.9 Q-64.95 40.05 -68.0 41.65 L-67.5 49.5 Q-73.85 51.0 -80.4 51.5 L-80.45 51.05 -82.0 52.3 Q-89.5 57.4 -98.0 55.7 -106.55 54.05 -112.0 46.65 -117.9 37.25 -114.7 27.05 -111.5 16.85 -103.25 10.65 -100.0 8.35 -96.3 6.85 -92.1 12.9 -89.35 19.8 -92.9 20.75 -95.9 22.7 -99.55 25.25 -101.55 29.25 -103.55 33.2 -100.85 37.5 -98.45 40.6 -94.55 41.05 -90.65 41.55 -88.0 39.6 -85.2 37.25 -84.3 35.3 L-82.4 31.25 -81.8 31.75 Q-82.5 20.0 -82.45 8.2 -75.9 4.7 -68.75 2.25 L-67.25 1.75 Q-59.05 10.85 -51.3 20.2 -52.3 10.6 -53.45 1.5 -44.05 -0.55 -34.3 -1.45 -28.95 -1.85 -23.5 0.5 L-24.45 -4.35 Q-14.65 -7.5 -4.7 -10.1 L11.25 -13.85 12.6 -10.0 Q17.65 -15.8 25.35 -16.7 M-69.4 18.8 L-69.1 23.95 -68.8 29.1 -64.9 27.25 -62.25 26.55 Q-65.6 22.5 -69.4 18.8 M-31.8 16.15 Q-29.4 14.95 -29.7 12.25 -30.25 9.95 -32.35 9.0 -34.45 8.05 -36.45 8.25 L-37.55 8.35 -36.1 17.35 Q-34.15 17.35 -31.8 16.15 M64.5 -1.75 Q64.8 -4.85 62.95 -7.9 61.15 -10.95 58.05 -11.5 54.4 -11.75 52.1 -8.95 49.75 -6.2 49.35 -2.6 49.05 0.5 50.75 3.4 52.45 6.35 55.5 6.85 58.95 7.05 61.5 4.4 64.05 1.75 64.5 -1.75" fill="#ffb316" fill-rule="evenodd" stroke="none"/>
    <path d="M27.55 -2.95 Q30.6 -3.3 33.1 -1.75 35.85 0.25 36.85 3.75 37.85 7.3 36.05 10.25 34.4 12.45 31.45 12.9 28.55 13.4 26.15 11.85 23.15 9.8 22.0 6.35 20.8 2.95 22.75 -0.25 24.55 -2.6 27.55 -2.95 M64.5 -1.75 Q64.05 1.75 61.5 4.4 58.95 7.05 55.5 6.85 52.45 6.35 50.75 3.4 49.05 0.5 49.35 -2.6 49.75 -6.2 52.1 -8.95 54.4 -11.75 58.05 -11.5 61.15 -10.95 62.95 -7.9 64.8 -4.85 64.5 -1.75 M-31.8 16.15 Q-34.15 17.35 -36.1 17.35 L-37.55 8.35 -36.45 8.25 Q-34.45 8.05 -32.35 9.0 -30.25 9.95 -29.7 12.25 -29.4 14.95 -31.8 16.15 M-69.4 18.8 Q-65.6 22.5 -62.25 26.55 L-64.9 27.25 -68.8 29.1 -69.1 23.95 -69.4 18.8" fill="none" stroke="#ffb316" stroke-linecap="round" stroke-linejoin="round" stroke-width="1.05"/>
    <path d="M36.95 -9.4 Q39.85 -7.3 41.85 -4.3 43.0 -10.5 47.15 -15.2 51.85 -20.55 59.1 -20.05 64.7 -19.15 68.6 -13.85 72.5 -8.55 72.05 -2.4 71.15 4.85 66.15 10.1 61.1 15.35 53.7 14.9 48.55 14.05 45.4 10.1 44.85 13.35 43.0 16.4 39.85 20.9 33.75 22.15 27.75 23.2 23.15 20.25 16.7 15.75 14.1 8.35 11.5 1.0 15.85 -6.05 19.35 -10.85 25.5 -11.85 31.6 -12.8 36.95 -9.4 M26.3 -7.75 Q21.4 -6.75 18.85 -3.05 15.75 2.0 17.4 7.35 19.05 12.7 23.55 15.85 27.6 18.45 32.75 17.55 37.65 16.55 40.2 12.9 42.85 8.85 41.9 3.5 40.6 -2.55 35.95 -5.85 31.65 -8.7 26.3 -7.75 M2.2 -7.5 L9.0 -9.3 9.2 -7.95 9.5 -6.55 -2.0 -3.15 -2.85 -2.95 -2.7 -2.1 Q-0.9 8.05 1.25 17.1 3.1 23.0 4.85 27.8 L1.9 28.65 0.05 29.1 Q-3.95 12.7 -6.6 -0.6 L-6.75 -1.55 -7.75 -1.35 Q-12.95 0.05 -17.8 1.9 L-18.7 2.15 -19.2 0.3 -19.55 -1.35 -15.4 -2.55 -2.6 -6.15 2.2 -7.5 M50.55 -13.7 Q45.65 -9.65 44.8 -3.1 44.1 2.55 47.6 7.2 50.6 10.9 54.85 11.45 59.45 11.8 63.25 8.55 68.0 4.6 68.8 -1.65 69.45 -7.25 65.85 -12.1 62.7 -15.95 58.45 -16.5 54.2 -16.85 50.55 -13.7 M-80.45 39.15 L-80.1 39.35 -78.25 41.15 Q-81.4 45.0 -85.1 47.6 -90.6 51.35 -97.2 50.2 -103.8 49.05 -107.8 43.65 -112.5 36.2 -109.8 28.1 -107.05 20.05 -100.2 14.9 L-97.5 13.15 -96.5 14.5 -95.55 16.4 Q-97.7 17.55 -99.45 18.85 -104.75 22.75 -106.8 28.7 -108.8 34.65 -105.0 40.6 -101.45 45.4 -95.95 46.45 -90.4 47.55 -85.7 44.3 -82.9 42.1 -80.45 39.15 M-70.3 11.6 L-71.95 12.4 -72.55 12.6 -72.55 13.2 Q-72.85 21.8 -72.5 29.75 L-72.3 36.2 -71.05 35.4 Q-67.2 33.05 -63.0 31.6 -59.55 30.2 -56.0 29.45 L-54.45 29.1 -55.5 27.9 -67.85 14.3 -70.3 11.6 M-75.3 11.6 Q-71.9 9.5 -68.4 8.3 L-63.3 14.15 Q-54.8 23.65 -46.55 33.7 L-48.85 35.55 -52.45 31.8 -53.05 32.0 -56.1 32.7 -61.1 34.0 Q-67.35 36.3 -71.7 39.35 L-72.1 39.7 -72.15 45.35 -75.4 46.0 Q-75.9 27.9 -75.3 11.6 M-40.15 21.65 L-38.5 21.5 -32.3 20.45 Q-28.25 19.55 -25.75 16.75 -24.15 14.65 -24.65 11.95 -26.15 4.15 -36.7 5.5 L-41.55 6.1 -42.5 6.2 -42.4 7.15 Q-41.65 13.55 -40.3 20.85 L-40.15 21.65 M-36.9 3.55 L-35.15 3.4 -33.4 3.25 Q-29.55 3.0 -25.25 5.0 -20.95 7.05 -20.05 10.65 -18.9 17.1 -27.5 21.7 L-28.85 22.4 -27.6 23.3 -23.75 25.95 Q-19.6 28.7 -15.9 32.2 L-19.25 34.65 Q-22.9 30.45 -27.05 27.25 L-31.7 23.4 -32.05 23.1 -39.5 24.85 -39.4 25.65 Q-39.05 30.05 -38.2 34.05 L-37.3 37.7 -37.05 38.7 -41.1 39.45 Q-44.65 23.7 -47.4 4.95 L-36.9 3.55 M80.15 -18.15 L80.15 -16.15 Q80.7 -7.3 82.1 1.6 82.6 6.35 83.55 11.3 L80.25 11.55 79.7 11.6 78.1 1.75 Q76.35 -9.4 75.35 -22.5 L79.6 -23.3 83.35 -19.5 Q94.05 -8.05 106.2 1.2 L107.85 2.35 107.75 1.35 107.6 0.35 107.25 -2.45 106.05 -14.85 Q105.55 -21.55 105.8 -27.05 L109.6 -27.7 Q109.85 -19.4 110.6 -10.25 111.4 -1.1 112.55 6.95 L108.85 7.35 107.95 7.4 Q98.55 0.65 90.55 -8.05 L81.65 -16.8 80.15 -18.15" fill="#ff0000" fill-rule="evenodd" stroke="none"/>
  </g>
</svg>
